<svg xmlns="http://www.w3.org/2000/svg" viewBox="0 0 301.19 67.51"><defs><style>.cls-1{fill:#1d1fdd;}.cls-2{fill:#8b8cf7;}</style></defs><g id="Layer_2" data-name="Layer 2"><g id="Layer_1-2" data-name="Layer 1"><path class="cls-1" d="M79.64,47.53V21.81h9.89a13.69,13.69,0,0,1,7.15,1.72A11.17,11.17,0,0,1,101,28.17a14.23,14.23,0,0,1,1.46,6.46,13.83,13.83,0,0,1-1.61,6.81,11.19,11.19,0,0,1-4.53,4.49,14,14,0,0,1-6.82,1.6Zm15.68-12.9a8.26,8.26,0,0,0-.69-3.49,5.32,5.32,0,0,0-2-2.34A5.62,5.62,0,0,0,89.53,28H86.7v13.4h2.83a5.46,5.46,0,0,0,3.13-.87,5.54,5.54,0,0,0,2-2.41A8.38,8.38,0,0,0,95.32,34.63Z"/><path class="cls-1" d="M110.61,21.81h7.89l8.19,25.72h-7.17l-1.33-5h-7.27l-1.33,5h-7.21Zm6.33,16-2.39-9-2.39,9.05Z"/><path class="cls-1" d="M144,30.25a22.73,22.73,0,0,0-2.25-1.18,18.74,18.74,0,0,0-2.2-.81,8.22,8.22,0,0,0-2.36-.37,3.33,3.33,0,0,0-1.48.29,1,1,0,0,0-.58,1,1.2,1.2,0,0,0,.58,1,6.26,6.26,0,0,0,1.64.72c.72.21,1.57.48,2.56.79A22.75,22.75,0,0,1,144,33.35a7.18,7.18,0,0,1,2.68,2.39,7.05,7.05,0,0,1,.94,3.85,8,8,0,0,1-.84,3.86,6.69,6.69,0,0,1-2.24,2.5,9.64,9.64,0,0,1-3.15,1.34,15.06,15.06,0,0,1-3.55.42,21.1,21.1,0,0,1-3.86-.38,27.47,27.47,0,0,1-3.89-1,20.59,20.59,0,0,1-3.44-1.58l3-6.19a26.12,26.12,0,0,0,2.64,1.41,21.1,21.1,0,0,0,2.67,1,10.27,10.27,0,0,0,3,.43A3.23,3.23,0,0,0,139.6,41a.9.9,0,0,0,.45-.78,1.28,1.28,0,0,0-.79-1.17,12.52,12.52,0,0,0-2.09-.79c-.86-.25-1.8-.55-2.84-.88a15.94,15.94,0,0,1-3.69-1.71,6.07,6.07,0,0,1-2.14-2.27,6.73,6.73,0,0,1-.69-3.18,8.09,8.09,0,0,1,1.34-4.75,8.48,8.48,0,0,1,3.53-2.89,11.36,11.36,0,0,1,4.73-1,14.64,14.64,0,0,1,3.64.45,22.28,22.28,0,0,1,3.29,1.11q1.54.64,2.7,1.23Z"/><path class="cls-1" d="M173.52,21.81V47.53h-7.06V37.46h-8.62V47.53h-7.07V21.81h7.07V31.3h8.62V21.81Z"/><path class="cls-1" d="M199.81,40.93a5.54,5.54,0,0,1-1.25,3.77,7.28,7.28,0,0,1-3.35,2.14,14.75,14.75,0,0,1-4.63.69H177.94V21.81h14.92a5.17,5.17,0,0,1,3.13,1,6.31,6.31,0,0,1,2,2.48,7.39,7.39,0,0,1,.71,3.15,7,7,0,0,1-.93,3.44,5.74,5.74,0,0,1-2.77,2.5,6.28,6.28,0,0,1,4.78,6.59ZM185,27.82v3.95h4.82a2.51,2.51,0,0,0,.9-.16,1.55,1.55,0,0,0,.73-.6,2.79,2.79,0,0,0,.05-2.37,1.52,1.52,0,0,0-.61-.62,1.88,1.88,0,0,0-.86-.2Zm7.64,11.66a2.73,2.73,0,0,0-.23-1.14,2.14,2.14,0,0,0-.64-.78,1.56,1.56,0,0,0-.94-.28H185v4.3h5.58a2.2,2.2,0,0,0,1-.25,1.9,1.9,0,0,0,.74-.72A2.25,2.25,0,0,0,192.64,39.48Z"/><path class="cls-1" d="M214.52,47.71a12.52,12.52,0,0,1-5.33-1.11,12.75,12.75,0,0,1-4.11-3,13.19,13.19,0,0,1-2.64-4.2,13,13,0,0,1-.92-4.84,12.51,12.51,0,0,1,1-4.89,13.58,13.58,0,0,1,2.74-4.14,12.82,12.82,0,0,1,4.16-2.88,13.09,13.09,0,0,1,5.27-1.05,12.38,12.38,0,0,1,9.42,4.09,14,14,0,0,1,2.63,4.22,13.08,13.08,0,0,1,.92,4.8,12.53,12.53,0,0,1-1,4.85A13.27,13.27,0,0,1,224,43.74a13.05,13.05,0,0,1-4.14,2.9A12.89,12.89,0,0,1,214.52,47.71Zm-5.83-13a8.7,8.7,0,0,0,.36,2.51,6.66,6.66,0,0,0,1.09,2.18A5.28,5.28,0,0,0,212,40.88a5.83,5.83,0,0,0,2.63.56,5.62,5.62,0,0,0,2.64-.58,5.08,5.08,0,0,0,1.83-1.57,7.37,7.37,0,0,0,1.05-2.21,9.08,9.08,0,0,0,.35-2.49,8.57,8.57,0,0,0-.36-2.49A7.08,7.08,0,0,0,219,29.94a5,5,0,0,0-1.85-1.5,6,6,0,0,0-2.61-.55,5.63,5.63,0,0,0-2.62.58A5.38,5.38,0,0,0,210.1,30,6.62,6.62,0,0,0,209,32.19,8.94,8.94,0,0,0,208.69,34.67Z"/><path class="cls-1" d="M235.67,21.81h7.9l8.18,25.72h-7.17l-1.33-5H236l-1.33,5h-7.21Zm6.34,16-2.39-9-2.39,9.05Z"/><path class="cls-1" d="M253.89,47.53V21.81H265.7a7.9,7.9,0,0,1,3.47.76,8.88,8.88,0,0,1,2.76,2.05,9.35,9.35,0,0,1,1.79,2.88,8.66,8.66,0,0,1,.63,3.22,9.44,9.44,0,0,1-.43,2.86,8.54,8.54,0,0,1-1.27,2.52,8.86,8.86,0,0,1-2,2l5.43,9.46h-7.75l-4.53-7.9H261v7.9ZM261,33.47h4.46a1.33,1.33,0,0,0,.83-.32,2.51,2.51,0,0,0,.67-.95,3.66,3.66,0,0,0,.27-1.48,3.21,3.21,0,0,0-.31-1.5,2.54,2.54,0,0,0-.76-.93,1.54,1.54,0,0,0-.89-.32H261Z"/><path class="cls-1" d="M278.34,47.53V21.81h9.88a13.73,13.73,0,0,1,7.16,1.72,11.08,11.08,0,0,1,4.34,4.64,14.11,14.11,0,0,1,1.47,6.46,13.83,13.83,0,0,1-1.61,6.81,11.31,11.31,0,0,1-4.53,4.49,14,14,0,0,1-6.83,1.6ZM294,34.63a8.26,8.26,0,0,0-.69-3.49,5.32,5.32,0,0,0-2-2.34,5.64,5.64,0,0,0-3.12-.83H285.4v13.4h2.82a5.47,5.47,0,0,0,3.14-.87,5.61,5.61,0,0,0,2-2.41A8.38,8.38,0,0,0,294,34.63Z"/><rect class="cls-2" y="10.65" width="56.86" height="56.86" rx="13.65"/><rect class="cls-1" x="23.54" width="41.06" height="41.06" rx="9.39"/></g></g></svg>